<mxfile host="Electron" modified="2024-03-31T21:25:23.220Z" agent="Mozilla/5.0 (Macintosh; Intel Mac OS X 10_15_7) AppleWebKit/537.36 (KHTML, like Gecko) draw.io/21.6.8 Chrome/114.0.5735.289 Electron/25.5.0 Safari/537.36" etag="yHD18trJuNvXTG5DB2h_" version="21.6.8" type="device">
  <diagram id="C5RBs43oDa-KdzZeNtuy" name="Page-1">
    <mxGraphModel dx="1026" dy="664" grid="1" gridSize="10" guides="1" tooltips="1" connect="1" arrows="1" fold="1" page="1" pageScale="1" pageWidth="827" pageHeight="1169" math="0" shadow="0">
      <root>
        <mxCell id="WIyWlLk6GJQsqaUBKTNV-0" />
        <mxCell id="WIyWlLk6GJQsqaUBKTNV-1" parent="WIyWlLk6GJQsqaUBKTNV-0" />
        <mxCell id="WIyWlLk6GJQsqaUBKTNV-2" value="" style="rounded=0;html=1;jettySize=auto;orthogonalLoop=1;fontSize=12;endArrow=block;endFill=0;endSize=8;strokeWidth=1;shadow=0;labelBackgroundColor=none;edgeStyle=orthogonalEdgeStyle;entryX=0.5;entryY=0;entryDx=0;entryDy=0;" parent="WIyWlLk6GJQsqaUBKTNV-1" source="WIyWlLk6GJQsqaUBKTNV-3" target="PEgNpAGPpV5E0--tVJy8-3" edge="1">
          <mxGeometry relative="1" as="geometry">
            <mxPoint x="220" y="170" as="targetPoint" />
          </mxGeometry>
        </mxCell>
        <mxCell id="WIyWlLk6GJQsqaUBKTNV-3" value="Data Exploration&lt;br style=&quot;font-size: 12px;&quot;&gt;&amp;amp; Preprocessing" style="rounded=1;whiteSpace=wrap;html=1;fontSize=12;glass=0;strokeWidth=1;shadow=0;" parent="WIyWlLk6GJQsqaUBKTNV-1" vertex="1">
          <mxGeometry x="160" y="80" width="120" height="40" as="geometry" />
        </mxCell>
        <mxCell id="PEgNpAGPpV5E0--tVJy8-0" value="Intent Classification Models Exploration" style="rounded=1;whiteSpace=wrap;html=1;fontSize=12;glass=0;strokeWidth=1;shadow=0;" parent="WIyWlLk6GJQsqaUBKTNV-1" vertex="1">
          <mxGeometry x="390" y="80" width="176" height="40" as="geometry" />
        </mxCell>
        <mxCell id="PEgNpAGPpV5E0--tVJy8-2" value="" style="rounded=0;html=1;jettySize=auto;orthogonalLoop=1;fontSize=12;endArrow=block;endFill=0;endSize=8;strokeWidth=1;shadow=0;labelBackgroundColor=none;edgeStyle=orthogonalEdgeStyle;exitX=0.5;exitY=1;exitDx=0;exitDy=0;entryX=0.5;entryY=0;entryDx=0;entryDy=0;" parent="WIyWlLk6GJQsqaUBKTNV-1" source="PEgNpAGPpV5E0--tVJy8-0" target="PEgNpAGPpV5E0--tVJy8-3" edge="1">
          <mxGeometry relative="1" as="geometry">
            <mxPoint x="230" y="130" as="sourcePoint" />
            <mxPoint x="414" y="170" as="targetPoint" />
          </mxGeometry>
        </mxCell>
        <mxCell id="PEgNpAGPpV5E0--tVJy8-5" style="edgeStyle=orthogonalEdgeStyle;rounded=0;orthogonalLoop=1;jettySize=auto;html=1;entryX=0.5;entryY=0;entryDx=0;entryDy=0;endArrow=block;endFill=0;fontSize=12;" parent="WIyWlLk6GJQsqaUBKTNV-1" source="PEgNpAGPpV5E0--tVJy8-3" target="PEgNpAGPpV5E0--tVJy8-4" edge="1">
          <mxGeometry relative="1" as="geometry" />
        </mxCell>
        <mxCell id="PEgNpAGPpV5E0--tVJy8-3" value="&lt;b&gt;Intent Classification Models Development&lt;/b&gt;" style="rounded=1;whiteSpace=wrap;html=1;fontSize=12;glass=0;strokeWidth=1;shadow=0;" parent="WIyWlLk6GJQsqaUBKTNV-1" vertex="1">
          <mxGeometry x="260" y="180" width="170" height="40" as="geometry" />
        </mxCell>
        <mxCell id="PEgNpAGPpV5E0--tVJy8-4" value="Model Evaluation &amp;amp; Selection" style="rounded=1;whiteSpace=wrap;html=1;fontSize=12;glass=0;strokeWidth=1;shadow=0;" parent="WIyWlLk6GJQsqaUBKTNV-1" vertex="1">
          <mxGeometry x="260" y="280" width="170" height="40" as="geometry" />
        </mxCell>
        <mxCell id="PEgNpAGPpV5E0--tVJy8-6" value="&lt;b&gt;Spell Check Module&lt;/b&gt;" style="rounded=1;whiteSpace=wrap;html=1;fontSize=12;glass=0;strokeWidth=1;shadow=0;" parent="WIyWlLk6GJQsqaUBKTNV-1" vertex="1">
          <mxGeometry x="580" y="180" width="170" height="40" as="geometry" />
        </mxCell>
        <mxCell id="PEgNpAGPpV5E0--tVJy8-7" value="&lt;b&gt;Response Generation&lt;/b&gt;" style="rounded=1;whiteSpace=wrap;html=1;fontSize=12;glass=0;strokeWidth=1;shadow=0;" parent="WIyWlLk6GJQsqaUBKTNV-1" vertex="1">
          <mxGeometry x="870" y="180" width="170" height="40" as="geometry" />
        </mxCell>
        <mxCell id="PEgNpAGPpV5E0--tVJy8-8" style="edgeStyle=orthogonalEdgeStyle;rounded=0;orthogonalLoop=1;jettySize=auto;html=1;endArrow=block;endFill=0;exitX=0.5;exitY=1;exitDx=0;exitDy=0;entryX=0.5;entryY=0;entryDx=0;entryDy=0;fontSize=12;" parent="WIyWlLk6GJQsqaUBKTNV-1" source="PEgNpAGPpV5E0--tVJy8-6" target="PEgNpAGPpV5E0--tVJy8-10" edge="1">
          <mxGeometry relative="1" as="geometry">
            <mxPoint x="355" y="230" as="sourcePoint" />
            <mxPoint x="630" y="360" as="targetPoint" />
          </mxGeometry>
        </mxCell>
        <mxCell id="PEgNpAGPpV5E0--tVJy8-9" style="edgeStyle=orthogonalEdgeStyle;rounded=0;orthogonalLoop=1;jettySize=auto;html=1;endArrow=block;endFill=0;exitX=0.5;exitY=1;exitDx=0;exitDy=0;entryX=0.5;entryY=0;entryDx=0;entryDy=0;fontSize=12;" parent="WIyWlLk6GJQsqaUBKTNV-1" source="PEgNpAGPpV5E0--tVJy8-7" target="PEgNpAGPpV5E0--tVJy8-10" edge="1">
          <mxGeometry relative="1" as="geometry">
            <mxPoint x="675" y="230" as="sourcePoint" />
            <mxPoint x="930" y="310" as="targetPoint" />
          </mxGeometry>
        </mxCell>
        <mxCell id="PEgNpAGPpV5E0--tVJy8-13" style="edgeStyle=orthogonalEdgeStyle;rounded=0;orthogonalLoop=1;jettySize=auto;html=1;entryX=0.5;entryY=0;entryDx=0;entryDy=0;endArrow=block;endFill=0;fontSize=12;" parent="WIyWlLk6GJQsqaUBKTNV-1" source="PEgNpAGPpV5E0--tVJy8-10" target="PEgNpAGPpV5E0--tVJy8-12" edge="1">
          <mxGeometry relative="1" as="geometry" />
        </mxCell>
        <mxCell id="PEgNpAGPpV5E0--tVJy8-10" value="&lt;b&gt;Integration &amp;amp; Chatbot Interface&lt;/b&gt;" style="rounded=1;whiteSpace=wrap;html=1;fontSize=12;glass=0;strokeWidth=1;shadow=0;" parent="WIyWlLk6GJQsqaUBKTNV-1" vertex="1">
          <mxGeometry x="580" y="390" width="170" height="40" as="geometry" />
        </mxCell>
        <mxCell id="PEgNpAGPpV5E0--tVJy8-11" style="edgeStyle=orthogonalEdgeStyle;rounded=0;orthogonalLoop=1;jettySize=auto;html=1;endArrow=block;endFill=0;exitX=0.5;exitY=1;exitDx=0;exitDy=0;entryX=0.5;entryY=0;entryDx=0;entryDy=0;fontSize=12;" parent="WIyWlLk6GJQsqaUBKTNV-1" source="PEgNpAGPpV5E0--tVJy8-4" target="PEgNpAGPpV5E0--tVJy8-10" edge="1">
          <mxGeometry relative="1" as="geometry">
            <mxPoint x="675" y="230" as="sourcePoint" />
            <mxPoint x="675" y="310" as="targetPoint" />
          </mxGeometry>
        </mxCell>
        <mxCell id="PEgNpAGPpV5E0--tVJy8-12" value="Testing" style="rounded=1;whiteSpace=wrap;html=1;fontSize=12;glass=0;strokeWidth=1;shadow=0;" parent="WIyWlLk6GJQsqaUBKTNV-1" vertex="1">
          <mxGeometry x="580" y="480" width="170" height="40" as="geometry" />
        </mxCell>
        <mxCell id="PEgNpAGPpV5E0--tVJy8-16" style="edgeStyle=orthogonalEdgeStyle;rounded=0;orthogonalLoop=1;jettySize=auto;html=1;entryX=0.5;entryY=0;entryDx=0;entryDy=0;endArrow=block;endFill=0;exitX=0.5;exitY=1;exitDx=0;exitDy=0;fontSize=12;" parent="WIyWlLk6GJQsqaUBKTNV-1" source="PEgNpAGPpV5E0--tVJy8-12" target="PEgNpAGPpV5E0--tVJy8-17" edge="1">
          <mxGeometry relative="1" as="geometry">
            <mxPoint x="650" y="540" as="sourcePoint" />
          </mxGeometry>
        </mxCell>
        <mxCell id="PEgNpAGPpV5E0--tVJy8-19" style="edgeStyle=orthogonalEdgeStyle;rounded=0;orthogonalLoop=1;jettySize=auto;html=1;entryX=0.5;entryY=0;entryDx=0;entryDy=0;endArrow=block;endFill=0;fontSize=12;" parent="WIyWlLk6GJQsqaUBKTNV-1" source="PEgNpAGPpV5E0--tVJy8-17" target="PEgNpAGPpV5E0--tVJy8-18" edge="1">
          <mxGeometry relative="1" as="geometry" />
        </mxCell>
        <mxCell id="PEgNpAGPpV5E0--tVJy8-17" value="Buffer period&lt;br style=&quot;font-size: 12px;&quot;&gt;Fixes, Improvisations" style="rounded=1;whiteSpace=wrap;html=1;fontSize=12;glass=0;strokeWidth=1;shadow=0;" parent="WIyWlLk6GJQsqaUBKTNV-1" vertex="1">
          <mxGeometry x="580" y="560" width="170" height="40" as="geometry" />
        </mxCell>
        <mxCell id="tuoUISYtRM4i_5cmx1Bb-1" style="edgeStyle=orthogonalEdgeStyle;rounded=0;orthogonalLoop=1;jettySize=auto;html=1;" edge="1" parent="WIyWlLk6GJQsqaUBKTNV-1" source="PEgNpAGPpV5E0--tVJy8-18" target="tuoUISYtRM4i_5cmx1Bb-0">
          <mxGeometry relative="1" as="geometry" />
        </mxCell>
        <mxCell id="PEgNpAGPpV5E0--tVJy8-18" value="User-Friendly UI" style="rounded=1;whiteSpace=wrap;html=1;fontSize=12;glass=0;strokeWidth=1;shadow=0;" parent="WIyWlLk6GJQsqaUBKTNV-1" vertex="1">
          <mxGeometry x="580" y="640" width="170" height="40" as="geometry" />
        </mxCell>
        <mxCell id="tuoUISYtRM4i_5cmx1Bb-2" style="edgeStyle=orthogonalEdgeStyle;rounded=0;orthogonalLoop=1;jettySize=auto;html=1;entryX=0.5;entryY=0;entryDx=0;entryDy=0;" edge="1" parent="WIyWlLk6GJQsqaUBKTNV-1" source="PEgNpAGPpV5E0--tVJy8-20" target="tuoUISYtRM4i_5cmx1Bb-0">
          <mxGeometry relative="1" as="geometry">
            <mxPoint x="800" y="700" as="targetPoint" />
          </mxGeometry>
        </mxCell>
        <mxCell id="PEgNpAGPpV5E0--tVJy8-20" value="Documentation" style="rounded=1;whiteSpace=wrap;html=1;fontSize=12;glass=0;strokeWidth=1;shadow=0;" parent="WIyWlLk6GJQsqaUBKTNV-1" vertex="1">
          <mxGeometry x="827" y="640" width="170" height="40" as="geometry" />
        </mxCell>
        <mxCell id="PEgNpAGPpV5E0--tVJy8-21" style="edgeStyle=orthogonalEdgeStyle;rounded=0;orthogonalLoop=1;jettySize=auto;html=1;entryX=0.5;entryY=0;entryDx=0;entryDy=0;endArrow=block;endFill=0;exitX=1;exitY=0.5;exitDx=0;exitDy=0;fontSize=12;" parent="WIyWlLk6GJQsqaUBKTNV-1" source="PEgNpAGPpV5E0--tVJy8-17" target="PEgNpAGPpV5E0--tVJy8-20" edge="1">
          <mxGeometry relative="1" as="geometry">
            <mxPoint x="675" y="610" as="sourcePoint" />
            <mxPoint x="675" y="650" as="targetPoint" />
          </mxGeometry>
        </mxCell>
        <mxCell id="tuoUISYtRM4i_5cmx1Bb-0" value="End" style="rounded=1;whiteSpace=wrap;html=1;fontSize=12;glass=0;strokeWidth=1;shadow=0;" vertex="1" parent="WIyWlLk6GJQsqaUBKTNV-1">
          <mxGeometry x="700" y="720" width="170" height="40" as="geometry" />
        </mxCell>
      </root>
    </mxGraphModel>
  </diagram>
</mxfile>
